<svg width="13" height="12" viewBox="0 0 13 12" fill="none" xmlns="http://www.w3.org/2000/svg">
<path d="M0.860352 6.06445C0.860352 5.89583 0.919596 5.75228 1.03809 5.63379C1.16113 5.51074 1.30469 5.44922 1.46875 5.44922H5.8916V1.0332C5.8916 0.869141 5.95085 0.727865 6.06934 0.609375C6.18783 0.486328 6.33138 0.424805 6.5 0.424805C6.66862 0.424805 6.81217 0.486328 6.93066 0.609375C7.05371 0.727865 7.11523 0.869141 7.11523 1.0332V5.44922H11.5312C11.6953 5.44922 11.8366 5.51074 11.9551 5.63379C12.0781 5.75228 12.1396 5.89583 12.1396 6.06445C12.1396 6.23307 12.0781 6.37663 11.9551 6.49512C11.8366 6.61361 11.6953 6.67285 11.5312 6.67285H7.11523V11.0957C7.11523 11.2598 7.05371 11.401 6.93066 11.5195C6.81217 11.6426 6.66862 11.7041 6.5 11.7041C6.33138 11.7041 6.18783 11.6426 6.06934 11.5195C5.95085 11.401 5.8916 11.2598 5.8916 11.0957V6.67285H1.46875C1.30469 6.67285 1.16113 6.61361 1.03809 6.49512C0.919596 6.37663 0.860352 6.23307 0.860352 6.06445Z" fill="#6E6E73"/>
</svg>
