<svg width="10" height="9" viewBox="0 0 10 9" fill="none" xmlns="http://www.w3.org/2000/svg">
<path d="M9.61426 4.46973C9.61426 4.62272 9.55729 4.75618 9.44336 4.87012L6.2207 8.08301C6.10677 8.19368 5.97819 8.24902 5.83496 8.24902C5.68522 8.24902 5.5599 8.2002 5.45898 8.10254C5.36133 8.00488 5.3125 7.88281 5.3125 7.73633C5.3125 7.66146 5.32552 7.59147 5.35156 7.52637C5.38086 7.46126 5.41992 7.4043 5.46875 7.35547L6.5625 6.25195L8.38379 4.5918L8.55469 4.9043L6.86035 5.00195H0.927734C0.764974 5.00195 0.633138 4.95312 0.532227 4.85547C0.43457 4.75456 0.385742 4.62598 0.385742 4.46973C0.385742 4.31022 0.43457 4.18164 0.532227 4.08398C0.633138 3.98307 0.764974 3.93262 0.927734 3.93262H6.86035L8.55469 4.03516L8.38379 4.35254L6.5625 2.6875L5.46875 1.5791C5.41992 1.53027 5.38086 1.47493 5.35156 1.41309C5.32552 1.34798 5.3125 1.27637 5.3125 1.19824C5.3125 1.05176 5.36133 0.929688 5.45898 0.832031C5.5599 0.734375 5.68522 0.685547 5.83496 0.685547C5.90658 0.685547 5.97493 0.700195 6.04004 0.729492C6.10514 0.758789 6.16699 0.802734 6.22559 0.861328L9.44336 4.06934C9.55729 4.18327 9.61426 4.31673 9.61426 4.46973Z" fill="black"/>
</svg>
