<svg width="14" height="15" viewBox="0 0 14 15" fill="none" xmlns="http://www.w3.org/2000/svg">
<path d="M3.07617 14.4414C2.36068 14.4414 1.82292 14.2637 1.46289 13.9082C1.10742 13.5573 0.929688 13.0286 0.929688 12.3223V5.24707C0.929688 4.54069 1.10742 4.01204 1.46289 3.66113C1.82292 3.30566 2.36068 3.12793 3.07617 3.12793H10.917C11.6279 3.12793 12.1634 3.30566 12.5234 3.66113C12.8835 4.01204 13.0635 4.54069 13.0635 5.24707V12.3223C13.0635 13.0286 12.8926 13.5573 12.5508 13.9082C12.209 14.2637 11.7327 14.4414 11.1221 14.4414H3.07617ZM3.08984 13.3408H11.1016C11.3385 13.3408 11.5413 13.2497 11.71 13.0674C11.8786 12.8896 11.9629 12.623 11.9629 12.2676V5.30176C11.9629 4.94629 11.8695 4.67969 11.6826 4.50195C11.4958 4.31966 11.2337 4.22852 10.8965 4.22852H3.08984C2.74805 4.22852 2.486 4.31966 2.30371 4.50195C2.12142 4.67969 2.03027 4.94629 2.03027 5.30176V12.2676C2.03027 12.623 2.12142 12.8896 2.30371 13.0674C2.486 13.2497 2.74805 13.3408 3.08984 13.3408ZM4.2998 3.39453C4.2998 2.88867 4.41829 2.43294 4.65527 2.02734C4.89225 1.61719 5.21354 1.29134 5.61914 1.0498C6.02474 0.808268 6.48275 0.6875 6.99316 0.6875C7.50358 0.6875 7.96159 0.808268 8.36719 1.0498C8.77734 1.29134 9.10091 1.61719 9.33789 2.02734C9.57487 2.43294 9.69336 2.88867 9.69336 3.39453L8.59277 3.40137C8.59277 3.07324 8.52441 2.78385 8.3877 2.5332C8.25553 2.28255 8.06868 2.08659 7.82715 1.94531C7.59017 1.79948 7.31217 1.72656 6.99316 1.72656C6.67871 1.72656 6.40072 1.79948 6.15918 1.94531C5.9222 2.08659 5.73535 2.28255 5.59863 2.5332C5.46647 2.78385 5.40039 3.07324 5.40039 3.40137L4.2998 3.39453Z" fill="#6E6E73"/>
</svg>
