<svg width="16" height="14" viewBox="0 0 16 14" fill="none" xmlns="http://www.w3.org/2000/svg">
<path d="M0.405273 12.2734V2.99707C0.405273 2.93783 0.409831 2.88314 0.418945 2.83301C0.42806 2.78288 0.450846 2.72819 0.487305 2.66895C0.692383 2.31803 0.990885 1.99447 1.38281 1.69824C1.7793 1.40202 2.24414 1.16504 2.77734 0.987305C3.3151 0.805013 3.89844 0.713867 4.52734 0.713867C5.27018 0.713867 5.94694 0.848307 6.55762 1.11719C7.17285 1.38151 7.65365 1.72559 8 2.14941C8.3418 1.72559 8.81803 1.38151 9.42871 1.11719C10.0439 0.848307 10.7253 0.713867 11.4727 0.713867C12.097 0.713867 12.6758 0.805013 13.209 0.987305C13.7467 1.16504 14.2139 1.40202 14.6104 1.69824C15.0068 1.99447 15.3053 2.31803 15.5059 2.66895C15.5423 2.72819 15.5651 2.78288 15.5742 2.83301C15.5833 2.88314 15.5879 2.93783 15.5879 2.99707V12.2734C15.5879 12.556 15.5104 12.7565 15.3555 12.875C15.2005 12.9935 15.0228 13.0527 14.8223 13.0527C14.7038 13.0527 14.5898 13.0231 14.4805 12.9639C14.3711 12.9092 14.2526 12.8408 14.125 12.7588C13.7467 12.5036 13.332 12.3008 12.8809 12.1504C12.4342 12.0046 11.974 11.9339 11.5 11.9385C11.0033 11.943 10.5179 12.0365 10.0439 12.2188C9.57454 12.401 9.14844 12.6768 8.76562 13.0459C8.61979 13.1826 8.48535 13.276 8.3623 13.3262C8.24382 13.3809 8.12305 13.4082 8 13.4082C7.8724 13.4082 7.74935 13.3809 7.63086 13.3262C7.51237 13.276 7.37793 13.1826 7.22754 13.0459C6.84473 12.6768 6.41634 12.401 5.94238 12.2188C5.47298 12.0365 4.99219 11.943 4.5 11.9385C4.02148 11.9339 3.55664 12.0046 3.10547 12.1504C2.65885 12.3008 2.24642 12.5036 1.86816 12.7588C1.74056 12.8408 1.62207 12.9092 1.5127 12.9639C1.40332 13.0231 1.29167 13.0527 1.17773 13.0527C0.972656 13.0527 0.792643 12.9935 0.637695 12.875C0.482747 12.7565 0.405273 12.556 0.405273 12.2734ZM1.50586 11.6924C1.86589 11.4326 2.31022 11.2253 2.83887 11.0703C3.36751 10.9154 3.93034 10.8379 4.52734 10.8379C4.9056 10.8379 5.27474 10.8812 5.63477 10.9678C5.99479 11.0498 6.32747 11.1637 6.63281 11.3096C6.94271 11.4554 7.21387 11.6217 7.44629 11.8086V3.19531C7.20475 2.77604 6.81966 2.44108 6.29102 2.19043C5.76237 1.93978 5.17448 1.81445 4.52734 1.81445C4.10352 1.81445 3.69564 1.87142 3.30371 1.98535C2.91634 2.09473 2.56543 2.24967 2.25098 2.4502C1.93652 2.65072 1.68815 2.88542 1.50586 3.1543V11.6924ZM8.54688 11.8086C8.7793 11.6217 9.05046 11.4554 9.36035 11.3096C9.67025 11.1637 10.0029 11.0498 10.3584 10.9678C10.7184 10.8812 11.0898 10.8379 11.4727 10.8379C12.0651 10.8379 12.6257 10.9154 13.1543 11.0703C13.6829 11.2253 14.1273 11.4326 14.4873 11.6924V3.1543C14.305 2.88542 14.0566 2.65072 13.7422 2.4502C13.4277 2.24967 13.0745 2.09473 12.6826 1.98535C12.2952 1.87142 11.8919 1.81445 11.4727 1.81445C10.821 1.81445 10.2308 1.93978 9.70215 2.19043C9.1735 2.44108 8.78841 2.77604 8.54688 3.19531V11.8086Z" fill="#6E6E73"/>
</svg>
