<svg width="13" height="13" viewBox="0 0 13 13" fill="none" xmlns="http://www.w3.org/2000/svg">
<path d="M6.5 12.7461C5.67578 12.7461 4.90234 12.5898 4.17969 12.2773C3.45703 11.9688 2.82227 11.541 2.27539 10.9941C1.72852 10.4473 1.29883 9.8125 0.986328 9.08984C0.677734 8.36719 0.523438 7.59375 0.523438 6.76953C0.523438 5.94531 0.677734 5.17188 0.986328 4.44922C1.29883 3.72656 1.72852 3.0918 2.27539 2.54492C2.82227 1.99414 3.45703 1.56445 4.17969 1.25586C4.90234 0.947266 5.67578 0.792969 6.5 0.792969C7.32422 0.792969 8.09766 0.947266 8.82031 1.25586C9.54297 1.56445 10.1777 1.99414 10.7246 2.54492C11.2715 3.0918 11.6992 3.72656 12.0078 4.44922C12.3203 5.17188 12.4766 5.94531 12.4766 6.76953C12.4766 7.59375 12.3203 8.36719 12.0078 9.08984C11.6992 9.8125 11.2715 10.4473 10.7246 10.9941C10.1777 11.541 9.54297 11.9688 8.82031 12.2773C8.09766 12.5898 7.32422 12.7461 6.5 12.7461ZM6.5 11.75C7.1875 11.75 7.83203 11.6211 8.43359 11.3633C9.03516 11.1055 9.56445 10.748 10.0215 10.291C10.4785 9.83398 10.8359 9.30469 11.0938 8.70312C11.3516 8.10156 11.4805 7.45703 11.4805 6.76953C11.4805 6.08203 11.3516 5.4375 11.0938 4.83594C10.8359 4.23047 10.4785 3.70117 10.0215 3.24805C9.56445 2.79102 9.03516 2.43359 8.43359 2.17578C7.83203 1.91797 7.1875 1.78906 6.5 1.78906C5.8125 1.78906 5.16797 1.91797 4.56641 2.17578C3.96484 2.43359 3.43555 2.79102 2.97852 3.24805C2.52148 3.70117 2.16406 4.23047 1.90625 4.83594C1.64844 5.4375 1.51953 6.08203 1.51953 6.76953C1.51953 7.45703 1.64844 8.10156 1.90625 8.70312C2.16406 9.30469 2.52148 9.83398 2.97852 10.291C3.43555 10.748 3.96484 11.1055 4.56641 11.3633C5.16797 11.6211 5.8125 11.75 6.5 11.75ZM4.61914 9.30664L3.81055 9.61133C3.74805 9.63477 3.68945 9.62109 3.63477 9.57031C3.58398 9.51953 3.57227 9.45898 3.59961 9.38867L3.93359 8.60938L7.77148 4.7832L8.46289 5.47461L4.61914 9.30664ZM8.81445 5.12891L8.12305 4.43164L8.55078 4.00977C8.64453 3.91602 8.74219 3.86523 8.84375 3.85742C8.94922 3.84961 9.04492 3.89063 9.13086 3.98047L9.26562 4.11523C9.35547 4.20117 9.39648 4.29688 9.38867 4.40234C9.38086 4.50391 9.33008 4.60352 9.23633 4.70117L8.81445 5.12891Z" fill="white"/>
</svg>
