<svg width="12" height="14" viewBox="0 0 12 14" fill="none" xmlns="http://www.w3.org/2000/svg">
<path d="M4.26562 11.8887C4.15625 11.8887 4.06836 11.8574 4.00195 11.7949C3.93555 11.7324 3.90039 11.6484 3.89648 11.543L3.7207 5.2793C3.7168 5.17773 3.74805 5.0957 3.81445 5.0332C3.88477 4.9668 3.97461 4.93359 4.08398 4.93359C4.18945 4.93359 4.27539 4.96484 4.3418 5.02734C4.41211 5.08984 4.44727 5.17188 4.44727 5.27344L4.62891 11.543C4.62891 11.6445 4.5957 11.7285 4.5293 11.7949C4.46289 11.8574 4.375 11.8887 4.26562 11.8887ZM6 11.8887C5.89062 11.8887 5.80078 11.8574 5.73047 11.7949C5.66016 11.7285 5.625 11.6445 5.625 11.543V5.2793C5.625 5.17773 5.66016 5.0957 5.73047 5.0332C5.80078 4.9668 5.89062 4.93359 6 4.93359C6.11328 4.93359 6.20508 4.9668 6.27539 5.0332C6.3457 5.0957 6.38086 5.17773 6.38086 5.2793V11.543C6.38086 11.6445 6.3457 11.7285 6.27539 11.7949C6.20508 11.8574 6.11328 11.8887 6 11.8887ZM7.74023 11.8887C7.62695 11.8887 7.53711 11.8574 7.4707 11.7949C7.4043 11.7285 7.37305 11.6445 7.37695 11.543L7.55273 5.2793C7.55664 5.17383 7.5918 5.08984 7.6582 5.02734C7.72461 4.96484 7.81055 4.93359 7.91602 4.93359C8.0293 4.93359 8.11914 4.9668 8.18555 5.0332C8.25195 5.0957 8.2832 5.17773 8.2793 5.2793L8.10352 11.543C8.09961 11.6484 8.06445 11.7324 7.99805 11.7949C7.93164 11.8574 7.8457 11.8887 7.74023 11.8887ZM3.42773 3.4043V2.0918C3.42773 1.66992 3.55664 1.33789 3.81445 1.0957C4.07617 0.849609 4.43164 0.726562 4.88086 0.726562H7.10742C7.55664 0.726562 7.91016 0.849609 8.16797 1.0957C8.42969 1.33789 8.56055 1.66992 8.56055 2.0918V3.4043H7.62891V2.15039C7.62891 1.98633 7.57422 1.85352 7.46484 1.75195C7.35938 1.65039 7.21875 1.59961 7.04297 1.59961H4.94531C4.76953 1.59961 4.62695 1.65039 4.51758 1.75195C4.41211 1.85352 4.35938 1.98633 4.35938 2.15039V3.4043H3.42773ZM0.767578 3.87305C0.650391 3.87305 0.546875 3.83008 0.457031 3.74414C0.371094 3.6543 0.328125 3.54883 0.328125 3.42773C0.328125 3.31055 0.371094 3.20898 0.457031 3.12305C0.546875 3.0332 0.650391 2.98828 0.767578 2.98828H11.2383C11.3555 2.98828 11.457 3.03125 11.543 3.11719C11.6289 3.20313 11.6719 3.30664 11.6719 3.42773C11.6719 3.54883 11.6289 3.6543 11.543 3.74414C11.4609 3.83008 11.3594 3.87305 11.2383 3.87305H0.767578ZM3.31641 13.7754C2.89453 13.7754 2.55273 13.6504 2.29102 13.4004C2.0332 13.1543 1.89453 12.8203 1.875 12.3984L1.45898 3.76172H2.37891L2.79492 12.293C2.80273 12.4648 2.86328 12.6074 2.97656 12.7207C3.08984 12.834 3.23047 12.8906 3.39844 12.8906H8.5957C8.76758 12.8906 8.91016 12.834 9.02344 12.7207C9.13672 12.6113 9.19727 12.4688 9.20508 12.293L9.59766 3.76172H10.541L10.1309 12.3926C10.1113 12.8145 9.9707 13.1504 9.70898 13.4004C9.44727 13.6504 9.10742 13.7754 8.68945 13.7754H3.31641Z" fill="white"/>
</svg>
