<svg width="14" height="12" viewBox="0 0 14 12" fill="none" xmlns="http://www.w3.org/2000/svg">
<path d="M9.44727 11.8955C9.14648 11.8955 8.87077 11.8203 8.62012 11.6699C8.37402 11.5241 8.17578 11.3258 8.02539 11.0752C7.875 10.8291 7.7998 10.5557 7.7998 10.2549C7.7998 9.9541 7.875 9.68066 8.02539 9.43457C8.17578 9.18392 8.37402 8.98568 8.62012 8.83984C8.87077 8.68945 9.14648 8.61426 9.44727 8.61426C9.74805 8.61426 10.0215 8.68945 10.2676 8.83984C10.5182 8.98568 10.7165 9.18392 10.8623 9.43457C11.0127 9.68066 11.0879 9.9541 11.0879 10.2549C11.0879 10.5557 11.0127 10.8291 10.8623 11.0752C10.7165 11.3258 10.5182 11.5241 10.2676 11.6699C10.0215 11.8203 9.74805 11.8955 9.44727 11.8955ZM9.44727 11.0547C9.67057 11.0547 9.8597 10.9772 10.0146 10.8223C10.1696 10.6673 10.2471 10.4782 10.2471 10.2549C10.2471 10.027 10.1696 9.83789 10.0146 9.6875C9.8597 9.53255 9.67057 9.45508 9.44727 9.45508C9.22396 9.45508 9.03483 9.53255 8.87988 9.6875C8.72493 9.83789 8.64746 10.027 8.64746 10.2549C8.64746 10.4782 8.72493 10.6673 8.87988 10.8223C9.03483 10.9772 9.22396 11.0547 9.44727 11.0547ZM8.36035 9.70117V10.8018H0.65625C0.505859 10.8018 0.375977 10.7493 0.266602 10.6445C0.161784 10.5352 0.109375 10.4053 0.109375 10.2549C0.109375 10.0999 0.161784 9.97005 0.266602 9.86523C0.375977 9.75586 0.505859 9.70117 0.65625 9.70117H8.36035ZM13.3574 9.70117C13.4987 9.70117 13.6217 9.75586 13.7266 9.86523C13.8314 9.97005 13.8838 10.0999 13.8838 10.2549C13.8838 10.4053 13.8314 10.5352 13.7266 10.6445C13.6217 10.7493 13.4987 10.8018 13.3574 10.8018H10.6367V9.70117H13.3574ZM4.62109 7.72559C4.32031 7.72559 4.0446 7.65039 3.79395 7.5C3.54785 7.34961 3.34961 7.15137 3.19922 6.90527C3.05339 6.65462 2.98047 6.37891 2.98047 6.07812C2.98047 5.77734 3.05339 5.50391 3.19922 5.25781C3.34961 5.00716 3.54785 4.80892 3.79395 4.66309C4.0446 4.5127 4.32031 4.4375 4.62109 4.4375C4.92188 4.4375 5.19531 4.5127 5.44141 4.66309C5.69206 4.80892 5.8903 5.00716 6.03613 5.25781C6.18652 5.50391 6.26172 5.77734 6.26172 6.07812C6.26172 6.37891 6.18652 6.65462 6.03613 6.90527C5.8903 7.15137 5.69206 7.34961 5.44141 7.5C5.19531 7.65039 4.92188 7.72559 4.62109 7.72559ZM4.62109 6.87793C4.84896 6.87793 5.03809 6.80046 5.18848 6.64551C5.34342 6.49056 5.4209 6.30143 5.4209 6.07812C5.4209 5.85026 5.34342 5.66113 5.18848 5.51074C5.03809 5.35579 4.84896 5.27832 4.62109 5.27832C4.39779 5.27832 4.20866 5.35579 4.05371 5.51074C3.89876 5.66113 3.82129 5.85026 3.82129 6.07812C3.82129 6.30143 3.89876 6.49056 4.05371 6.64551C4.20866 6.80046 4.39779 6.87793 4.62109 6.87793ZM0.628906 5.52441H3.44531V6.625H0.628906C0.492188 6.625 0.371419 6.57259 0.266602 6.46777C0.161784 6.36296 0.109375 6.23307 0.109375 6.07812C0.109375 5.92318 0.161784 5.79329 0.266602 5.68848C0.371419 5.5791 0.492188 5.52441 0.628906 5.52441ZM13.3301 5.52441C13.485 5.52441 13.6149 5.5791 13.7197 5.68848C13.8291 5.79329 13.8838 5.92318 13.8838 6.07812C13.8838 6.23307 13.8291 6.36296 13.7197 6.46777C13.6149 6.57259 13.485 6.625 13.3301 6.625H5.70801V5.52441H13.3301ZM9.44727 3.54199C9.14648 3.54199 8.87077 3.46908 8.62012 3.32324C8.37402 3.17285 8.17578 2.97461 8.02539 2.72852C7.875 2.47786 7.7998 2.20215 7.7998 1.90137C7.7998 1.60059 7.875 1.32715 8.02539 1.08105C8.17578 0.830404 8.37402 0.629883 8.62012 0.479492C8.87077 0.329102 9.14648 0.253906 9.44727 0.253906C9.74805 0.253906 10.0215 0.329102 10.2676 0.479492C10.5182 0.629883 10.7165 0.830404 10.8623 1.08105C11.0127 1.32715 11.0879 1.60059 11.0879 1.90137C11.0879 2.20215 11.0127 2.47786 10.8623 2.72852C10.7165 2.97461 10.5182 3.17285 10.2676 3.32324C10.0215 3.46908 9.74805 3.54199 9.44727 3.54199ZM9.44727 2.70117C9.67057 2.70117 9.8597 2.6237 10.0146 2.46875C10.1696 2.30924 10.2471 2.11784 10.2471 1.89453C10.2471 1.67122 10.1696 1.4821 10.0146 1.32715C9.8597 1.1722 9.67057 1.09473 9.44727 1.09473C9.22396 1.09473 9.03483 1.1722 8.87988 1.32715C8.72493 1.4821 8.64746 1.67122 8.64746 1.89453C8.64746 2.11784 8.72493 2.30924 8.87988 2.46875C9.03483 2.6237 9.22396 2.70117 9.44727 2.70117ZM8.39453 1.35449V2.45508H0.65625C0.505859 2.45508 0.375977 2.40267 0.266602 2.29785C0.161784 2.18848 0.109375 2.05632 0.109375 1.90137C0.109375 1.75098 0.161784 1.62337 0.266602 1.51855C0.375977 1.40918 0.505859 1.35449 0.65625 1.35449H8.39453ZM13.3574 1.35449C13.4987 1.35449 13.6217 1.40918 13.7266 1.51855C13.8314 1.62337 13.8838 1.75098 13.8838 1.90137C13.8838 2.05632 13.8314 2.18848 13.7266 2.29785C13.6217 2.40267 13.4987 2.45508 13.3574 2.45508H10.541V1.35449H13.3574Z" fill="#6E6E73"/>
</svg>
