<svg width="14" height="15" viewBox="0 0 14 15" fill="none" xmlns="http://www.w3.org/2000/svg">
<path d="M7 14.0371C6.03841 14.0371 5.13607 13.8548 4.29297 13.4902C3.44987 13.1302 2.70931 12.6312 2.07129 11.9932C1.43327 11.3551 0.931966 10.6146 0.567383 9.77148C0.207357 8.92839 0.0273438 8.02604 0.0273438 7.06445C0.0273438 6.10286 0.207357 5.20052 0.567383 4.35742C0.931966 3.51432 1.43327 2.77376 2.07129 2.13574C2.70931 1.49316 3.44987 0.991862 4.29297 0.631836C5.13607 0.27181 6.03841 0.0917969 7 0.0917969C7.96159 0.0917969 8.86393 0.27181 9.70703 0.631836C10.5501 0.991862 11.2907 1.49316 11.9287 2.13574C12.5667 2.77376 13.0658 3.51432 13.4258 4.35742C13.7904 5.20052 13.9727 6.10286 13.9727 7.06445C13.9727 8.02604 13.7904 8.92839 13.4258 9.77148C13.0658 10.6146 12.5667 11.3551 11.9287 11.9932C11.2907 12.6312 10.5501 13.1302 9.70703 13.4902C8.86393 13.8548 7.96159 14.0371 7 14.0371ZM7 12.875C7.80208 12.875 8.55404 12.7246 9.25586 12.4238C9.95768 12.123 10.5752 11.7061 11.1084 11.1729C11.6416 10.6396 12.0586 10.0221 12.3594 9.32031C12.6602 8.61849 12.8105 7.86654 12.8105 7.06445C12.8105 6.26237 12.6602 5.51042 12.3594 4.80859C12.0586 4.10221 11.6416 3.4847 11.1084 2.95605C10.5752 2.42285 9.95768 2.00586 9.25586 1.70508C8.55404 1.4043 7.80208 1.25391 7 1.25391C6.19792 1.25391 5.44596 1.4043 4.74414 1.70508C4.04232 2.00586 3.4248 2.42285 2.8916 2.95605C2.3584 3.4847 1.94141 4.10221 1.64062 4.80859C1.33984 5.51042 1.18945 6.26237 1.18945 7.06445C1.18945 7.86654 1.33984 8.61849 1.64062 9.32031C1.94141 10.0221 2.3584 10.6396 2.8916 11.1729C3.4248 11.7061 4.04232 12.123 4.74414 12.4238C5.44596 12.7246 6.19792 12.875 7 12.875ZM5.80371 10.8857C5.66243 10.8857 5.54395 10.8402 5.44824 10.749C5.35254 10.6579 5.30469 10.5439 5.30469 10.4072C5.30469 10.2705 5.35254 10.1566 5.44824 10.0654C5.54395 9.97428 5.66243 9.92871 5.80371 9.92871H6.65137V6.79102H5.91992C5.77865 6.79102 5.66016 6.74544 5.56445 6.6543C5.46875 6.56315 5.4209 6.44922 5.4209 6.3125C5.4209 6.17578 5.46875 6.06185 5.56445 5.9707C5.66016 5.87956 5.77865 5.83398 5.91992 5.83398H7.20508C7.37826 5.83398 7.51042 5.89095 7.60156 6.00488C7.69271 6.11426 7.73828 6.26237 7.73828 6.44922V9.92871H8.58594C8.72721 9.92871 8.8457 9.97428 8.94141 10.0654C9.03711 10.1566 9.08496 10.2705 9.08496 10.4072C9.08496 10.5439 9.03711 10.6579 8.94141 10.749C8.8457 10.8402 8.72721 10.8857 8.58594 10.8857H5.80371ZM6.93848 4.69238C6.69238 4.69238 6.48275 4.60579 6.30957 4.43262C6.13639 4.25944 6.0498 4.0498 6.0498 3.80371C6.0498 3.55306 6.13639 3.34115 6.30957 3.16797C6.48275 2.99479 6.69238 2.9082 6.93848 2.9082C7.18913 2.9082 7.39876 2.99479 7.56738 3.16797C7.74056 3.34115 7.82715 3.55306 7.82715 3.80371C7.82715 4.0498 7.74056 4.25944 7.56738 4.43262C7.39876 4.60579 7.18913 4.69238 6.93848 4.69238Z" fill="#6E6E73"/>
</svg>
