<svg width="10" height="14" viewBox="0 0 10 14" fill="none" xmlns="http://www.w3.org/2000/svg">
<path d="M1.86914 13.5928C1.36784 13.5928 0.985026 13.4561 0.720703 13.1826C0.460938 12.9137 0.331055 12.5081 0.331055 11.9658V7.25586C0.331055 6.7181 0.460938 6.31478 0.720703 6.0459C0.985026 5.77246 1.36784 5.63574 1.86914 5.63574H8.12402C8.62533 5.63574 9.00586 5.77246 9.26562 6.0459C9.52995 6.31478 9.66211 6.7181 9.66211 7.25586V11.9658C9.66211 12.5081 9.52995 12.9137 9.26562 13.1826C9.00586 13.4561 8.62533 13.5928 8.12402 13.5928H1.86914ZM1.90332 12.5605H8.08984C8.24023 12.5605 8.35417 12.515 8.43164 12.4238C8.51367 12.3372 8.55469 12.2096 8.55469 12.041V7.18066C8.55469 7.01204 8.51367 6.88444 8.43164 6.79785C8.35417 6.71126 8.24023 6.66797 8.08984 6.66797H1.90332C1.75749 6.66797 1.64355 6.71126 1.56152 6.79785C1.47949 6.88444 1.43848 7.01204 1.43848 7.18066V12.041C1.43848 12.2096 1.47949 12.3372 1.56152 12.4238C1.64355 12.515 1.75749 12.5605 1.90332 12.5605ZM1.52734 6.16211V4.00195C1.52734 3.14518 1.69141 2.43424 2.01953 1.86914C2.35221 1.30404 2.78288 0.882487 3.31152 0.604492C3.84017 0.326497 4.40072 0.1875 4.99316 0.1875C5.59017 0.1875 6.15299 0.326497 6.68164 0.604492C7.21029 0.882487 7.63867 1.30404 7.9668 1.86914C8.29948 2.43424 8.46582 3.14518 8.46582 4.00195V6.16211H7.38574V3.8584C7.38574 3.28418 7.27409 2.80111 7.05078 2.40918C6.83203 2.01725 6.54036 1.72103 6.17578 1.52051C5.81576 1.31999 5.42155 1.21973 4.99316 1.21973C4.56934 1.21973 4.17513 1.31999 3.81055 1.52051C3.45052 1.72103 3.16113 2.01725 2.94238 2.40918C2.72363 2.80111 2.61426 3.28418 2.61426 3.8584V6.16211H1.52734Z" fill="#6E6E73"/>
</svg>
