<svg width="16" height="16" viewBox="0 0 16 16" fill="none" xmlns="http://www.w3.org/2000/svg">
<path d="M2.18262 15.3926C1.47624 15.3926 0.945312 15.2148 0.589844 14.8594C0.238932 14.5039 0.0634766 13.9684 0.0634766 13.2529V2.88281C0.0634766 2.17188 0.238932 1.63639 0.589844 1.27637C0.945312 0.916341 1.47624 0.736328 2.18262 0.736328H9.44238C10.1488 0.736328 10.6774 0.916341 11.0283 1.27637C11.3838 1.63639 11.5615 2.17188 11.5615 2.88281V6.23926H10.4609V2.90332C10.4609 2.56152 10.3698 2.29948 10.1875 2.11719C10.0098 1.93034 9.74316 1.83691 9.3877 1.83691H2.2373C1.88184 1.83691 1.61296 1.93034 1.43066 2.11719C1.25293 2.29948 1.16406 2.56152 1.16406 2.90332V13.2324C1.16406 13.5742 1.25293 13.8363 1.43066 14.0186C1.61296 14.2008 1.88184 14.292 2.2373 14.292H9.3877C9.74316 14.292 10.0098 14.2008 10.1875 14.0186C10.3698 13.8363 10.4609 13.5742 10.4609 13.2324V9.88965H11.5615V13.2529C11.5615 13.9684 11.3838 14.5039 11.0283 14.8594C10.6774 15.2148 10.1488 15.3926 9.44238 15.3926H2.18262ZM5.93555 8.06445C5.93555 7.91862 5.98796 7.79102 6.09277 7.68164C6.19759 7.57227 6.32064 7.51758 6.46191 7.51758H13.4141L14.4395 7.56543L14.0361 7.17578L12.9082 6.12305C12.7988 6.02734 12.7441 5.90202 12.7441 5.74707C12.7441 5.60124 12.7897 5.48275 12.8809 5.3916C12.972 5.30046 13.0859 5.25488 13.2227 5.25488C13.3548 5.25488 13.4756 5.30729 13.585 5.41211L15.7588 7.66797C15.8271 7.73633 15.8727 7.80241 15.8955 7.86621C15.9229 7.93001 15.9365 7.99609 15.9365 8.06445C15.9365 8.13281 15.9229 8.19889 15.8955 8.2627C15.8727 8.3265 15.8271 8.39258 15.7588 8.46094L13.585 10.71C13.4756 10.8193 13.3548 10.874 13.2227 10.874C13.0859 10.874 12.972 10.8262 12.8809 10.7305C12.7897 10.6348 12.7441 10.5163 12.7441 10.375C12.7441 10.2246 12.7988 10.1016 12.9082 10.0059L14.0361 8.94629L14.4395 8.56348L13.4141 8.60449H6.46191C6.32064 8.60449 6.19759 8.55208 6.09277 8.44727C5.98796 8.33789 5.93555 8.21029 5.93555 8.06445Z" fill="#FF3B30"/>
</svg>
