<svg width="117" height="23" viewBox="0 0 117 23" fill="none" xmlns="http://www.w3.org/2000/svg">
<path d="M13.1437 5.925C13.275 5.925 13.4781 5.94062 13.7531 5.97187C14.0344 5.99687 14.3531 6.06562 14.7094 6.17812C15.0656 6.29062 15.4281 6.47187 15.7969 6.72187C16.1656 6.97187 16.5062 7.32187 16.8187 7.77187C16.7875 7.79062 16.6687 7.875 16.4625 8.025C16.2625 8.175 16.0344 8.39375 15.7781 8.68125C15.5219 8.9625 15.2969 9.32187 15.1031 9.75937C14.9156 10.1906 14.8219 10.7062 14.8219 11.3062C14.8219 11.9937 14.9406 12.575 15.1781 13.05C15.4219 13.525 15.7031 13.9094 16.0219 14.2031C16.3469 14.4969 16.6344 14.7125 16.8844 14.85C17.1406 14.9812 17.2781 15.05 17.2969 15.0562C17.2906 15.0812 17.2437 15.2219 17.1562 15.4781C17.0687 15.7281 16.9312 16.0531 16.7437 16.4531C16.5625 16.8469 16.325 17.2594 16.0312 17.6906C15.7625 18.0719 15.4844 18.4375 15.1969 18.7875C14.9156 19.1375 14.6062 19.4219 14.2687 19.6406C13.9375 19.8656 13.5625 19.9781 13.1437 19.9781C12.825 19.9781 12.5531 19.9406 12.3281 19.8656C12.1031 19.7906 11.8875 19.7031 11.6812 19.6031C11.4812 19.5094 11.2594 19.425 11.0156 19.35C10.7719 19.275 10.4687 19.2375 10.1062 19.2375C9.63123 19.2375 9.23435 19.2969 8.9156 19.4156C8.6031 19.5406 8.30623 19.6656 8.02498 19.7906C7.74373 19.9156 7.41248 19.9781 7.03123 19.9781C6.44998 19.9781 5.93748 19.75 5.49373 19.2938C5.05623 18.8375 4.60623 18.2875 4.14373 17.6437C3.78748 17.1312 3.46248 16.5406 3.16873 15.8719C2.87498 15.2031 2.6406 14.4937 2.4656 13.7437C2.2906 12.9937 2.2031 12.2437 2.2031 11.4937C2.2031 10.2937 2.43123 9.28125 2.88748 8.45625C3.34373 7.625 3.9281 6.99687 4.6406 6.57187C5.3531 6.14062 6.09373 5.925 6.86248 5.925C7.26873 5.925 7.64998 5.99687 8.00623 6.14062C8.36873 6.28437 8.70623 6.42812 9.01873 6.57187C9.33123 6.70937 9.6156 6.77812 9.87185 6.77812C10.1156 6.77812 10.4031 6.70937 10.7344 6.57187C11.0656 6.42812 11.4312 6.28437 11.8312 6.14062C12.2375 5.99687 12.675 5.925 13.1437 5.925ZM12.4875 4.40625C12.175 4.7875 11.7812 5.10312 11.3062 5.35312C10.8375 5.60312 10.3937 5.72812 9.97498 5.72812C9.88748 5.72812 9.8031 5.71875 9.72185 5.7C9.7156 5.675 9.70623 5.63125 9.69373 5.56875C9.68748 5.50625 9.68435 5.4375 9.68435 5.3625C9.68435 4.8875 9.78748 4.425 9.99373 3.975C10.2 3.525 10.4375 3.15 10.7062 2.85C11.0375 2.45625 11.4562 2.12812 11.9625 1.86562C12.475 1.60312 12.9656 1.4625 13.4344 1.44375C13.4531 1.55 13.4625 1.67187 13.4625 1.80937C13.4625 2.29062 13.3719 2.75937 13.1906 3.21562C13.0094 3.66562 12.775 4.0625 12.4875 4.40625Z" fill="#1D1D1F"/>
<path d="M35.2531 18L34.0156 14.3437H28.8594L27.6219 18H25.4375L30.3219 4.47187H32.5906L37.475 18H35.2531ZM31.4094 6.72187L29.3937 12.6562H33.4812L31.4656 6.72187H31.4094ZM43.8594 7.97812C46.3625 7.97812 48.0125 9.94687 48.0125 13.0687C48.0125 16.1906 46.3719 18.1688 43.8969 18.1688C42.4812 18.1688 41.3562 17.475 40.7937 16.3781H40.7469V21.2625H38.7219V8.1375H40.6812V9.83437H40.7187C41.3 8.7 42.4344 7.97812 43.8594 7.97812ZM43.325 16.4531C44.9281 16.4531 45.9312 15.1406 45.9312 13.0687C45.9312 11.0062 44.9281 9.68437 43.325 9.68437C41.7781 9.68437 40.7375 11.0344 40.7375 13.0687C40.7375 15.1219 41.7687 16.4531 43.325 16.4531ZM54.7156 7.97812C57.2188 7.97812 58.8688 9.94687 58.8688 13.0687C58.8688 16.1906 57.2281 18.1688 54.7531 18.1688C53.3375 18.1688 52.2125 17.475 51.65 16.3781H51.6031V21.2625H49.5781V8.1375H51.5375V9.83437H51.575C52.1563 8.7 53.2906 7.97812 54.7156 7.97812ZM54.1813 16.4531C55.7844 16.4531 56.7875 15.1406 56.7875 13.0687C56.7875 11.0062 55.7844 9.68437 54.1813 9.68437C52.6344 9.68437 51.5938 11.0344 51.5938 13.0687C51.5938 15.1219 52.625 16.4531 54.1813 16.4531ZM60.5094 18V4.47187H62.5344V18H60.5094ZM68.7406 9.59062C67.325 9.59062 66.3312 10.6687 66.2281 12.1594H71.1594C71.1125 10.65 70.1562 9.59062 68.7406 9.59062ZM71.15 15.1031H73.0719C72.7906 16.9031 71.0844 18.1875 68.825 18.1875C65.9281 18.1875 64.175 16.2281 64.175 13.1156C64.175 10.0219 65.9562 7.95937 68.7406 7.95937C71.4781 7.95937 73.1844 9.89062 73.1844 12.8812V13.575H66.2187V13.6969C66.2187 15.4125 67.25 16.5469 68.8719 16.5469C70.025 16.5469 70.8781 15.9656 71.15 15.1031ZM81.0031 18H78.9031V4.47187H87.35V6.28125H81.0031V10.5656H86.8156V12.3375H81.0031V18ZM89.0094 18V4.47187H91.0344V18H89.0094ZM97.3531 18.1875C94.5313 18.1875 92.675 16.2469 92.675 13.0687C92.675 9.9 94.5406 7.95937 97.3531 7.95937C100.166 7.95937 102.031 9.9 102.031 13.0687C102.031 16.2469 100.175 18.1875 97.3531 18.1875ZM97.3531 16.5187C98.9469 16.5187 99.9688 15.2625 99.9688 13.0687C99.9688 10.8844 98.9375 9.62812 97.3531 9.62812C95.7688 9.62812 94.7375 10.8844 94.7375 13.0687C94.7375 15.2625 95.7688 16.5187 97.3531 16.5187ZM116.572 8.1375L113.872 18H111.763L109.691 10.6125H109.644L107.591 18H105.5L102.791 8.1375H104.816L106.616 15.9H106.653L108.706 8.1375H110.656L112.719 15.9H112.766L114.566 8.1375H116.572Z" fill="#1D1D1F"/>
</svg>
