<svg width="16" height="15" viewBox="0 0 16 15" fill="none" xmlns="http://www.w3.org/2000/svg">
<path d="M0.384766 7.53027V6.52539C0.384766 5.6276 0.628581 4.94401 1.11621 4.47461C1.60384 4.00065 2.31478 3.76367 3.24902 3.76367H5.66211C6.19987 3.70443 6.76497 3.611 7.35742 3.4834C7.95443 3.35124 8.55827 3.1849 9.16895 2.98438C9.77962 2.7793 10.3766 2.5446 10.96 2.28027C11.5479 2.01595 12.0993 1.71973 12.6143 1.3916V2.60156C12.0993 2.92057 11.5615 3.2054 11.001 3.45605C10.4404 3.70671 9.86165 3.92546 9.26465 4.1123C8.66764 4.29915 8.05469 4.45638 7.42578 4.58398C6.79688 4.70703 6.16113 4.80046 5.51855 4.86426H3.24902C2.62467 4.86426 2.1735 4.99414 1.89551 5.25391C1.62207 5.51367 1.48535 5.9375 1.48535 6.52539V7.53027C1.48535 8.11816 1.62207 8.54199 1.89551 8.80176C2.1735 9.06152 2.62467 9.19141 3.24902 9.19141H5.58008C6.21354 9.25521 6.83789 9.34863 7.45312 9.47168C8.06836 9.59473 8.66992 9.74967 9.25781 9.93652C9.85026 10.1234 10.4268 10.3421 10.9873 10.5928C11.5479 10.8434 12.0902 11.1283 12.6143 11.4473V12.6641C12.0765 12.3359 11.5205 12.0397 10.9463 11.7754C10.3766 11.5111 9.79329 11.2809 9.19629 11.085C8.60384 10.889 8.00684 10.7249 7.40527 10.5928C6.80827 10.4606 6.21354 10.3604 5.62109 10.292H3.24902C2.31478 10.292 1.60384 10.055 1.11621 9.58105C0.628581 9.1071 0.384766 8.4235 0.384766 7.53027ZM6.74219 10.2031L7.27539 12.9512C7.36654 13.4069 7.32096 13.7852 7.13867 14.0859C6.96094 14.3867 6.70573 14.5895 6.37305 14.6943C6.1543 14.7627 5.91048 14.7878 5.6416 14.7695C5.37272 14.7513 5.1084 14.651 4.84863 14.4688C4.58887 14.2865 4.36556 13.988 4.17871 13.5732L2.59961 10.0732H3.7207L5.26562 13.375C5.3431 13.5391 5.44792 13.6439 5.58008 13.6895C5.7168 13.735 5.84212 13.7373 5.95605 13.6963C6.06543 13.6553 6.15202 13.5846 6.21582 13.4844C6.28418 13.3887 6.30469 13.2656 6.27734 13.1152L5.70312 10.2031H6.74219ZM4.69824 4.2832H5.80566V9.77246H4.69824V4.2832ZM12.2246 11.9805V2.02734C12.2246 1.6901 12.2952 1.39616 12.4365 1.14551C12.5778 0.890299 12.776 0.692057 13.0312 0.550781C13.2865 0.409505 13.5804 0.338867 13.9131 0.338867C14.2549 0.338867 14.5511 0.409505 14.8018 0.550781C15.057 0.692057 15.2552 0.890299 15.3965 1.14551C15.5378 1.39616 15.6084 1.6901 15.6084 2.02734V11.9805C15.6084 12.3177 15.5378 12.6117 15.3965 12.8623C15.2552 13.1175 15.057 13.3158 14.8018 13.457C14.5511 13.5983 14.2549 13.6689 13.9131 13.6689C13.5804 13.6689 13.2865 13.5983 13.0312 13.457C12.776 13.3158 12.5778 13.1175 12.4365 12.8623C12.2952 12.6117 12.2246 12.3177 12.2246 11.9805ZM13.332 11.9805C13.332 12.1582 13.3844 12.3018 13.4893 12.4111C13.5941 12.516 13.7354 12.5684 13.9131 12.5684C14.0908 12.5684 14.2344 12.516 14.3438 12.4111C14.4531 12.3018 14.5078 12.1582 14.5078 11.9805V2.02734C14.5078 1.84961 14.4531 1.70833 14.3438 1.60352C14.2344 1.49414 14.0908 1.43945 13.9131 1.43945C13.7354 1.43945 13.5941 1.49414 13.4893 1.60352C13.3844 1.70833 13.332 1.84961 13.332 2.02734V11.9805Z" fill="#6E6E73"/>
</svg>
