<svg width="13" height="13" viewBox="0 0 13 13" fill="none" xmlns="http://www.w3.org/2000/svg">
<path d="M6.49414 12.8223C5.6582 12.8223 4.875 12.6641 4.14453 12.3477C3.41406 12.0352 2.77148 11.6016 2.2168 11.0469C1.66211 10.4961 1.22656 9.85547 0.910156 9.125C0.597656 8.39062 0.441406 7.60547 0.441406 6.76953C0.441406 5.93359 0.597656 5.15039 0.910156 4.41992C1.22656 3.68555 1.66211 3.04102 2.2168 2.48633C2.77148 1.93164 3.41406 1.49805 4.14453 1.18555C4.875 0.873047 5.6582 0.716797 6.49414 0.716797C7.33008 0.716797 8.11328 0.873047 8.84375 1.18555C9.57812 1.49805 10.2227 1.93164 10.7773 2.48633C11.332 3.04102 11.7656 3.68555 12.0781 4.41992C12.3945 5.15039 12.5527 5.93359 12.5527 6.76953C12.5527 7.60547 12.3945 8.39062 12.0781 9.125C11.7656 9.85547 11.332 10.4961 10.7773 11.0469C10.2227 11.6016 9.57812 12.0352 8.84375 12.3477C8.11328 12.6641 7.33008 12.8223 6.49414 12.8223ZM6.49414 11.627C7.16602 11.627 7.79492 11.5 8.38086 11.2461C8.9668 10.9961 9.48242 10.6484 9.92773 10.2031C10.377 9.75781 10.7266 9.24219 10.9766 8.65625C11.2266 8.07031 11.3516 7.44141 11.3516 6.76953C11.3516 6.09766 11.2266 5.46875 10.9766 4.88281C10.7266 4.29297 10.377 3.77734 9.92773 3.33594C9.48242 2.89062 8.9668 2.54297 8.38086 2.29297C7.79492 2.03906 7.16602 1.91211 6.49414 1.91211C5.82617 1.91211 5.19727 2.03906 4.60742 2.29297C4.02148 2.54297 3.50586 2.89062 3.06055 3.33594C2.61523 3.77734 2.26562 4.29297 2.01172 4.88281C1.76172 5.46875 1.63672 6.09766 1.63672 6.76953C1.63672 7.44141 1.76172 8.07031 2.01172 8.65625C2.26562 9.24219 2.61523 9.75781 3.06055 10.2031C3.50586 10.6484 4.02148 10.9961 4.60742 11.2461C5.19727 11.5 5.82617 11.627 6.49414 11.627ZM6.36523 7.93555C5.99414 7.93555 5.80859 7.76953 5.80859 7.4375C5.80859 7.42578 5.80859 7.41406 5.80859 7.40234C5.80859 7.39062 5.80859 7.38086 5.80859 7.37305C5.80859 7.10352 5.875 6.88477 6.00781 6.7168C6.14453 6.54883 6.31836 6.39258 6.5293 6.24805C6.7793 6.07617 6.96484 5.92969 7.08594 5.80859C7.21094 5.6875 7.27344 5.53516 7.27344 5.35156C7.27344 5.15234 7.19922 4.99023 7.05078 4.86523C6.90625 4.73633 6.71484 4.67188 6.47656 4.67188C6.35938 4.67188 6.25 4.69141 6.14844 4.73047C6.05078 4.76953 5.95898 4.82617 5.87305 4.90039C5.79102 4.9707 5.7168 5.05859 5.65039 5.16406L5.55664 5.28711C5.50195 5.36133 5.43555 5.41992 5.35742 5.46289C5.2832 5.50586 5.19336 5.52734 5.08789 5.52734C4.9668 5.52734 4.85938 5.48633 4.76562 5.4043C4.67188 5.32227 4.625 5.21094 4.625 5.07031C4.625 5.01562 4.62891 4.96484 4.63672 4.91797C4.64844 4.86719 4.66406 4.81641 4.68359 4.76562C4.77344 4.49219 4.98047 4.25586 5.30469 4.05664C5.63281 3.85742 6.04883 3.75781 6.55273 3.75781C6.89648 3.75781 7.21289 3.81836 7.50195 3.93945C7.79492 4.06055 8.0293 4.23438 8.20508 4.46094C8.38086 4.6875 8.46875 4.96289 8.46875 5.28711C8.46875 5.63086 8.38086 5.90234 8.20508 6.10156C8.0332 6.30078 7.80469 6.49609 7.51953 6.6875C7.32422 6.8125 7.17578 6.93164 7.07422 7.04492C6.97266 7.1582 6.91797 7.29102 6.91016 7.44336C6.91016 7.45117 6.91016 7.46289 6.91016 7.47852C6.91016 7.49023 6.9082 7.50195 6.9043 7.51367C6.89648 7.63086 6.84375 7.73047 6.74609 7.8125C6.65234 7.89453 6.52539 7.93555 6.36523 7.93555ZM6.35352 9.73438C6.16602 9.73438 6.00391 9.67383 5.86719 9.55273C5.73438 9.42773 5.66797 9.27344 5.66797 9.08984C5.66797 8.90625 5.73438 8.75391 5.86719 8.63281C6 8.50781 6.16211 8.44531 6.35352 8.44531C6.54492 8.44531 6.70703 8.50586 6.83984 8.62695C6.97266 8.74805 7.03906 8.90234 7.03906 9.08984C7.03906 9.27734 6.97266 9.43164 6.83984 9.55273C6.70703 9.67383 6.54492 9.73438 6.35352 9.73438Z" fill="#6E6E73"/>
</svg>
