<svg width="16" height="17" viewBox="0 0 16 17" fill="none" xmlns="http://www.w3.org/2000/svg">
<path d="M0.202687 6.7374C0.202687 5.85951 0.367625 5.03748 0.697501 4.27131C1.02738 3.49983 1.48495 2.82146 2.07021 2.23619C2.65548 1.65093 3.33119 1.19336 4.09735 0.863481C4.86884 0.533605 5.69353 0.368667 6.57142 0.368667C7.44932 0.368667 8.27135 0.533605 9.03751 0.863481C9.809 1.19336 10.4874 1.65093 11.0726 2.23619C11.6579 2.82146 12.1155 3.49983 12.4453 4.27131C12.7752 5.03748 12.9402 5.85951 12.9402 6.7374C12.9402 7.46632 12.8231 8.158 12.589 8.81243C12.3602 9.46686 12.041 10.0601 11.6313 10.5922L15.5339 14.5188C15.6191 14.6039 15.6829 14.7023 15.7255 14.814C15.7734 14.9258 15.7973 15.0455 15.7973 15.1732C15.7973 15.3488 15.7574 15.5084 15.6776 15.652C15.6031 15.7957 15.4967 15.9074 15.3584 15.9872C15.22 16.0724 15.0604 16.1149 14.8795 16.1149C14.7518 16.1149 14.6294 16.091 14.5124 16.0431C14.4007 16.0005 14.2969 15.934 14.2011 15.8436L10.2745 11.909C9.75313 12.2815 9.17851 12.5741 8.55068 12.7869C7.92285 12.9997 7.2631 13.1061 6.57142 13.1061C5.69353 13.1061 4.86884 12.9412 4.09735 12.6113C3.33119 12.2815 2.65548 11.8239 2.07021 11.2386C1.48495 10.6534 1.02738 9.97764 0.697501 9.21147C0.367625 8.43999 0.202687 7.6153 0.202687 6.7374ZM1.56742 6.7374C1.56742 7.42908 1.69511 8.07819 1.9505 8.68474C2.21121 9.28596 2.57035 9.81536 3.02792 10.2729C3.49081 10.7305 4.02286 11.0896 4.62409 11.3503C5.23064 11.6111 5.87975 11.7414 6.57142 11.7414C7.2631 11.7414 7.90955 11.6111 8.51078 11.3503C9.11732 11.0896 9.64938 10.7305 10.107 10.2729C10.5645 9.81536 10.9237 9.28596 11.1844 8.68474C11.4451 8.07819 11.5754 7.42908 11.5754 6.7374C11.5754 6.04573 11.4451 5.39928 11.1844 4.79805C10.9237 4.19151 10.5645 3.65945 10.107 3.20188C9.64938 2.73899 9.11732 2.37985 8.51078 2.12446C7.90955 1.86375 7.2631 1.7334 6.57142 1.7334C5.87975 1.7334 5.23064 1.86375 4.62409 2.12446C4.02286 2.37985 3.49081 2.73899 3.02792 3.20188C2.57035 3.65945 2.21121 4.19151 1.9505 4.79805C1.69511 5.39928 1.56742 6.04573 1.56742 6.7374Z" fill="#6E6E73"/>
</svg>
