<svg width="16" height="15" viewBox="0 0 16 15" fill="none" xmlns="http://www.w3.org/2000/svg">
<path d="M7.30957 14.8721C7.04525 14.8721 6.81738 14.7969 6.62598 14.6465C6.43457 14.5007 6.31152 14.3001 6.25684 14.0449L5.95605 12.7666L5.7373 12.6914L4.62988 13.375C4.40658 13.5117 4.17415 13.5641 3.93262 13.5322C3.69108 13.5049 3.47689 13.3978 3.29004 13.2109L2.33984 12.2607C2.14844 12.0693 2.03678 11.8551 2.00488 11.6182C1.97754 11.3766 2.03451 11.1465 2.17578 10.9277L2.86621 9.82031L2.79102 9.61523L1.5127 9.31445C1.26204 9.25977 1.06152 9.13672 0.911133 8.94531C0.760742 8.74935 0.685547 8.52148 0.685547 8.26172V6.9082C0.685547 6.64844 0.758464 6.42285 0.904297 6.23145C1.05469 6.04004 1.25749 5.91471 1.5127 5.85547L2.77734 5.54785L2.85938 5.3291L2.16895 4.22168C2.02767 4.00293 1.9707 3.77507 1.99805 3.53809C2.02995 3.29655 2.1416 3.08008 2.33301 2.88867L3.2832 1.93164C3.47005 1.74935 3.68197 1.64225 3.91895 1.61035C4.16048 1.57845 4.3929 1.63086 4.61621 1.76758L5.72363 2.45117L5.95605 2.3623L6.25684 1.08398C6.31152 0.833333 6.43457 0.632812 6.62598 0.482422C6.81738 0.332031 7.04525 0.256836 7.30957 0.256836H8.69043C8.95475 0.256836 9.18034 0.332031 9.36719 0.482422C9.55859 0.632812 9.68392 0.833333 9.74316 1.08398L10.0371 2.3623L10.2695 2.45117L11.3838 1.76758C11.6025 1.63086 11.8327 1.57845 12.0742 1.61035C12.3158 1.64225 12.5277 1.74935 12.71 1.93164L13.667 2.88867C13.8584 3.08008 13.9678 3.29655 13.9951 3.53809C14.0225 3.77507 13.9678 4.00293 13.8311 4.22168L13.1338 5.3291L13.2227 5.54785L14.4873 5.85547C14.738 5.91471 14.9385 6.04004 15.0889 6.23145C15.2393 6.42285 15.3145 6.64844 15.3145 6.9082V8.26172C15.3145 8.52148 15.2393 8.74935 15.0889 8.94531C14.9385 9.13672 14.738 9.25977 14.4873 9.31445L13.209 9.61523L13.127 9.82031L13.8242 10.9277C13.9609 11.1465 14.0133 11.3766 13.9814 11.6182C13.9541 11.8551 13.847 12.0693 13.6602 12.2607L12.7031 13.2109C12.5163 13.3978 12.3021 13.5049 12.0605 13.5322C11.819 13.5641 11.5889 13.5117 11.3701 13.375L10.2559 12.6914L10.0371 12.7666L9.74316 14.0449C9.68392 14.3001 9.55859 14.5007 9.36719 14.6465C9.18034 14.7969 8.95475 14.8721 8.69043 14.8721H7.30957ZM7.41895 13.8057H8.58105C8.69499 13.8057 8.75879 13.7533 8.77246 13.6484L9.18945 11.9531C9.39909 11.903 9.59733 11.8392 9.78418 11.7617C9.97103 11.6797 10.1374 11.5931 10.2832 11.502L11.7734 12.418C11.8691 12.4818 11.9557 12.4704 12.0332 12.3838L12.833 11.5771C12.9105 11.5088 12.9196 11.4245 12.8604 11.3242L11.9443 9.84766C12.0264 9.70182 12.1061 9.53548 12.1836 9.34863C12.2656 9.16178 12.334 8.96354 12.3887 8.75391L14.0908 8.35059C14.1956 8.33236 14.248 8.26628 14.248 8.15234V7.01074C14.248 6.90137 14.1956 6.83529 14.0908 6.8125L12.3955 6.40234C12.3408 6.17904 12.2702 5.97168 12.1836 5.78027C12.097 5.58887 12.0218 5.42936 11.958 5.30176L12.8672 3.8252C12.931 3.72493 12.9242 3.63607 12.8467 3.55859L12.04 2.76562C11.958 2.69271 11.8691 2.68132 11.7734 2.73145L10.29 3.63379C10.1396 3.55176 9.97103 3.47201 9.78418 3.39453C9.60189 3.3125 9.40365 3.24414 9.18945 3.18945L8.77246 1.48047C8.75879 1.37565 8.69499 1.32324 8.58105 1.32324H7.41895C7.30501 1.32324 7.23893 1.37565 7.2207 1.48047L6.81738 3.17578C6.6123 3.23047 6.40951 3.29883 6.20898 3.38086C6.01302 3.46289 5.84212 3.54492 5.69629 3.62695L4.21973 2.73145C4.12402 2.68132 4.03743 2.69271 3.95996 2.76562L3.14648 3.55859C3.07357 3.63607 3.06673 3.72493 3.12598 3.8252L4.03516 5.30176C3.97591 5.42936 3.90072 5.58887 3.80957 5.78027C3.72298 5.97168 3.65234 6.17904 3.59766 6.40234L1.90918 6.8125C1.80436 6.83529 1.75195 6.90137 1.75195 7.01074V8.15234C1.75195 8.26628 1.80436 8.33236 1.90918 8.35059L3.60449 8.75391C3.65918 8.96354 3.72754 9.16178 3.80957 9.34863C3.8916 9.53548 3.97135 9.70182 4.04883 9.84766L3.13281 11.3242C3.07812 11.4245 3.08724 11.5088 3.16016 11.5771L3.9668 12.3838C4.04427 12.4704 4.12858 12.4818 4.21973 12.418L5.70996 11.502C5.85579 11.5931 6.02214 11.6797 6.20898 11.7617C6.40039 11.8392 6.60091 11.903 6.81055 11.9531L7.2207 13.6484C7.23893 13.7533 7.30501 13.8057 7.41895 13.8057ZM8 10.1689C7.51693 10.1689 7.07715 10.0527 6.68066 9.82031C6.28874 9.58333 5.97656 9.26888 5.74414 8.87695C5.51172 8.48047 5.39551 8.04297 5.39551 7.56445C5.39551 7.08138 5.51172 6.64388 5.74414 6.25195C5.97656 5.86003 6.28874 5.54785 6.68066 5.31543C7.07715 5.07845 7.51693 4.95996 8 4.95996C8.47852 4.95996 8.91374 5.07845 9.30566 5.31543C9.70215 5.54785 10.0166 5.86003 10.249 6.25195C10.486 6.64388 10.6045 7.08138 10.6045 7.56445C10.6045 8.04297 10.486 8.48047 10.249 8.87695C10.0166 9.26888 9.70215 9.58333 9.30566 9.82031C8.91374 10.0527 8.47852 10.1689 8 10.1689ZM8 9.10938C8.28255 9.10938 8.54004 9.04102 8.77246 8.9043C9.00944 8.76302 9.19629 8.57617 9.33301 8.34375C9.47428 8.10677 9.54492 7.84701 9.54492 7.56445C9.54492 7.27734 9.47428 7.01758 9.33301 6.78516C9.19629 6.55273 9.00944 6.36816 8.77246 6.23145C8.54004 6.09017 8.28255 6.01953 8 6.01953C7.71289 6.01953 7.45312 6.09017 7.2207 6.23145C6.98828 6.36816 6.80143 6.55273 6.66016 6.78516C6.52344 7.01758 6.45508 7.27734 6.45508 7.56445C6.45508 7.84701 6.52344 8.10677 6.66016 8.34375C6.80143 8.57617 6.98828 8.76302 7.2207 8.9043C7.45312 9.04102 7.71289 9.10938 8 9.10938Z" fill="#6E6E73"/>
</svg>
