<svg width="12" height="15" viewBox="0 0 12 15" fill="none" xmlns="http://www.w3.org/2000/svg">
<path d="M6 14.1533C5.94531 14.1533 5.87695 14.1419 5.79492 14.1191C5.71289 14.0964 5.62858 14.0622 5.54199 14.0166C4.57129 13.4697 3.75098 12.9844 3.08105 12.5605C2.41569 12.1367 1.88021 11.7266 1.47461 11.3301C1.06901 10.9336 0.775065 10.5052 0.592773 10.0449C0.410482 9.58464 0.319336 9.04232 0.319336 8.41797V3.18848C0.319336 2.82845 0.394531 2.57096 0.544922 2.41602C0.69987 2.25651 0.920898 2.11751 1.20801 1.99902C1.36751 1.93066 1.58854 1.8418 1.87109 1.73242C2.15365 1.62305 2.46582 1.50456 2.80762 1.37695C3.14941 1.24935 3.48893 1.12402 3.82617 1.00098C4.16797 0.873372 4.48014 0.761719 4.7627 0.666016C5.04525 0.565755 5.26855 0.492839 5.43262 0.447266C5.52376 0.424479 5.61719 0.401693 5.71289 0.378906C5.80859 0.35612 5.9043 0.344727 6 0.344727C6.0957 0.344727 6.19141 0.35612 6.28711 0.378906C6.38737 0.397135 6.48307 0.419922 6.57422 0.447266C6.73372 0.501953 6.95475 0.579427 7.2373 0.679688C7.51986 0.779948 7.83203 0.891602 8.17383 1.01465C8.51562 1.1377 8.85514 1.26302 9.19238 1.39062C9.53418 1.51367 9.84635 1.62988 10.1289 1.73926C10.4115 1.84408 10.6325 1.93066 10.792 1.99902C11.0837 2.12207 11.3047 2.26107 11.4551 2.41602C11.6055 2.57096 11.6807 2.82845 11.6807 3.18848V8.41797C11.6807 9.04232 11.5895 9.58691 11.4072 10.0518C11.2295 10.512 10.9378 10.9404 10.5322 11.3369C10.1266 11.7334 9.58887 12.1413 8.91895 12.5605C8.25358 12.9844 7.43327 13.4697 6.45801 14.0166C6.37142 14.0622 6.28711 14.0964 6.20508 14.1191C6.12305 14.1419 6.05469 14.1533 6 14.1533ZM6 12.916C6.05469 12.916 6.11393 12.9023 6.17773 12.875C6.24154 12.8522 6.32357 12.8112 6.42383 12.752C7.21224 12.2734 7.87305 11.861 8.40625 11.5146C8.94401 11.1683 9.3724 10.8402 9.69141 10.5303C10.015 10.2204 10.2451 9.88086 10.3818 9.51172C10.5231 9.14258 10.5938 8.69368 10.5938 8.16504V3.40039C10.5938 3.28646 10.5778 3.19987 10.5459 3.14062C10.5186 3.08138 10.4593 3.03581 10.3682 3.00391C10.154 2.93099 9.90788 2.84668 9.62988 2.75098C9.35645 2.65072 9.06706 2.5459 8.76172 2.43652C8.46094 2.32715 8.15788 2.21777 7.85254 2.1084C7.55176 1.99447 7.26465 1.88737 6.99121 1.78711C6.71777 1.68229 6.47852 1.58887 6.27344 1.50684C6.21875 1.48405 6.16862 1.4681 6.12305 1.45898C6.07747 1.44987 6.03646 1.44531 6 1.44531C5.96354 1.44531 5.92253 1.44987 5.87695 1.45898C5.83138 1.4681 5.78125 1.48405 5.72656 1.50684C5.52148 1.58887 5.28223 1.68001 5.00879 1.78027C4.73535 1.88053 4.44596 1.98535 4.14062 2.09473C3.83529 2.19954 3.52995 2.30664 3.22461 2.41602C2.91927 2.52539 2.62988 2.63021 2.35645 2.73047C2.08301 2.83073 1.84375 2.92188 1.63867 3.00391C1.54297 3.04036 1.47917 3.08822 1.44727 3.14746C1.41992 3.20215 1.40625 3.28646 1.40625 3.40039V8.16504C1.40625 8.69368 1.47689 9.14258 1.61816 9.51172C1.75944 9.88086 1.98958 10.2227 2.30859 10.5371C2.6276 10.847 3.05371 11.1751 3.58691 11.5215C4.12467 11.8633 4.78776 12.2734 5.57617 12.752C5.67643 12.8112 5.75846 12.8522 5.82227 12.875C5.88607 12.9023 5.94531 12.916 6 12.916Z" fill="#6E6E73"/>
</svg>
